<mxfile host="app.diagrams.net" modified="2023-03-10T08:06:56.052Z" agent="5.0 (Windows)" etag="RKmdR0Mm7tQau56SfL31" version="21.0.6" type="github">
  <diagram id="R2lEEEUBdFMjLlhIrx00" name="Page-1">
    <mxGraphModel dx="1434" dy="774" grid="1" gridSize="10" guides="1" tooltips="1" connect="1" arrows="1" fold="1" page="1" pageScale="1" pageWidth="850" pageHeight="1100" math="0" shadow="0" extFonts="Permanent Marker^https://fonts.googleapis.com/css?family=Permanent+Marker">
      <root>
        <mxCell id="0" />
        <mxCell id="1" parent="0" />
        <mxCell id="mJHiC2hu7bWrU97c693A-3" style="edgeStyle=orthogonalEdgeStyle;rounded=0;orthogonalLoop=1;jettySize=auto;html=1;" edge="1" parent="1" source="mJHiC2hu7bWrU97c693A-1" target="mJHiC2hu7bWrU97c693A-2">
          <mxGeometry relative="1" as="geometry" />
        </mxCell>
        <mxCell id="mJHiC2hu7bWrU97c693A-9" style="edgeStyle=orthogonalEdgeStyle;rounded=0;orthogonalLoop=1;jettySize=auto;html=1;" edge="1" parent="1" source="mJHiC2hu7bWrU97c693A-1" target="mJHiC2hu7bWrU97c693A-8">
          <mxGeometry relative="1" as="geometry" />
        </mxCell>
        <mxCell id="mJHiC2hu7bWrU97c693A-1" value="BÃ¼rozimmer" style="whiteSpace=wrap;html=1;align=center;" vertex="1" parent="1">
          <mxGeometry x="165" y="230" width="100" height="40" as="geometry" />
        </mxCell>
        <mxCell id="mJHiC2hu7bWrU97c693A-23" style="edgeStyle=orthogonalEdgeStyle;rounded=0;orthogonalLoop=1;jettySize=auto;html=1;" edge="1" parent="1" source="mJHiC2hu7bWrU97c693A-2" target="mJHiC2hu7bWrU97c693A-22">
          <mxGeometry relative="1" as="geometry" />
        </mxCell>
        <mxCell id="mJHiC2hu7bWrU97c693A-2" value="sitzen" style="shape=rhombus;perimeter=rhombusPerimeter;whiteSpace=wrap;html=1;align=center;" vertex="1" parent="1">
          <mxGeometry x="155" y="290" width="120" height="60" as="geometry" />
        </mxCell>
        <mxCell id="mJHiC2hu7bWrU97c693A-12" style="edgeStyle=orthogonalEdgeStyle;rounded=0;orthogonalLoop=1;jettySize=auto;html=1;" edge="1" parent="1" source="mJHiC2hu7bWrU97c693A-8" target="mJHiC2hu7bWrU97c693A-21">
          <mxGeometry relative="1" as="geometry">
            <mxPoint x="650" y="250" as="targetPoint" />
          </mxGeometry>
        </mxCell>
        <mxCell id="mJHiC2hu7bWrU97c693A-8" value="hat" style="shape=rhombus;perimeter=rhombusPerimeter;whiteSpace=wrap;html=1;align=center;" vertex="1" parent="1">
          <mxGeometry x="410" y="220" width="120" height="60" as="geometry" />
        </mxCell>
        <mxCell id="mJHiC2hu7bWrU97c693A-15" value="" style="edgeStyle=orthogonalEdgeStyle;rounded=0;orthogonalLoop=1;jettySize=auto;html=1;entryX=0.5;entryY=0;entryDx=0;entryDy=0;" edge="1" parent="1" source="mJHiC2hu7bWrU97c693A-21" target="mJHiC2hu7bWrU97c693A-16">
          <mxGeometry relative="1" as="geometry">
            <mxPoint x="700" y="270" as="sourcePoint" />
            <mxPoint x="690" y="330" as="targetPoint" />
          </mxGeometry>
        </mxCell>
        <mxCell id="mJHiC2hu7bWrU97c693A-40" style="edgeStyle=orthogonalEdgeStyle;rounded=0;orthogonalLoop=1;jettySize=auto;html=1;entryX=0.5;entryY=0;entryDx=0;entryDy=0;" edge="1" parent="1" source="mJHiC2hu7bWrU97c693A-16" target="mJHiC2hu7bWrU97c693A-37">
          <mxGeometry relative="1" as="geometry" />
        </mxCell>
        <mxCell id="mJHiC2hu7bWrU97c693A-16" value="ist" style="shape=rhombus;perimeter=rhombusPerimeter;whiteSpace=wrap;html=1;align=center;" vertex="1" parent="1">
          <mxGeometry x="640" y="290" width="120" height="60" as="geometry" />
        </mxCell>
        <mxCell id="mJHiC2hu7bWrU97c693A-17" value="Hausapparat" style="ellipse;whiteSpace=wrap;html=1;align=center;" vertex="1" parent="1">
          <mxGeometry x="580" y="460" width="100" height="40" as="geometry" />
        </mxCell>
        <mxCell id="mJHiC2hu7bWrU97c693A-18" value="Amtsapparat" style="ellipse;whiteSpace=wrap;html=1;align=center;" vertex="1" parent="1">
          <mxGeometry x="720" y="460" width="100" height="40" as="geometry" />
        </mxCell>
        <mxCell id="mJHiC2hu7bWrU97c693A-36" style="edgeStyle=orthogonalEdgeStyle;rounded=0;orthogonalLoop=1;jettySize=auto;html=1;entryX=0.5;entryY=1;entryDx=0;entryDy=0;" edge="1" parent="1" source="mJHiC2hu7bWrU97c693A-21" target="mJHiC2hu7bWrU97c693A-35">
          <mxGeometry relative="1" as="geometry" />
        </mxCell>
        <mxCell id="mJHiC2hu7bWrU97c693A-21" value="Telefon" style="whiteSpace=wrap;html=1;align=center;" vertex="1" parent="1">
          <mxGeometry x="650" y="230" width="100" height="40" as="geometry" />
        </mxCell>
        <mxCell id="mJHiC2hu7bWrU97c693A-26" style="edgeStyle=orthogonalEdgeStyle;rounded=0;orthogonalLoop=1;jettySize=auto;html=1;entryX=0.5;entryY=0;entryDx=0;entryDy=0;" edge="1" parent="1" source="mJHiC2hu7bWrU97c693A-22" target="mJHiC2hu7bWrU97c693A-25">
          <mxGeometry relative="1" as="geometry" />
        </mxCell>
        <mxCell id="mJHiC2hu7bWrU97c693A-28" style="edgeStyle=orthogonalEdgeStyle;rounded=0;orthogonalLoop=1;jettySize=auto;html=1;entryX=0.5;entryY=0;entryDx=0;entryDy=0;" edge="1" parent="1" source="mJHiC2hu7bWrU97c693A-22" target="mJHiC2hu7bWrU97c693A-27">
          <mxGeometry relative="1" as="geometry">
            <mxPoint x="215" y="440" as="targetPoint" />
          </mxGeometry>
        </mxCell>
        <mxCell id="mJHiC2hu7bWrU97c693A-31" style="edgeStyle=orthogonalEdgeStyle;rounded=0;orthogonalLoop=1;jettySize=auto;html=1;entryX=0.5;entryY=0;entryDx=0;entryDy=0;" edge="1" parent="1" source="mJHiC2hu7bWrU97c693A-22" target="mJHiC2hu7bWrU97c693A-30">
          <mxGeometry relative="1" as="geometry" />
        </mxCell>
        <mxCell id="mJHiC2hu7bWrU97c693A-33" style="edgeStyle=orthogonalEdgeStyle;rounded=0;orthogonalLoop=1;jettySize=auto;html=1;entryX=0.5;entryY=0;entryDx=0;entryDy=0;" edge="1" parent="1" source="mJHiC2hu7bWrU97c693A-22" target="mJHiC2hu7bWrU97c693A-32">
          <mxGeometry relative="1" as="geometry" />
        </mxCell>
        <mxCell id="mJHiC2hu7bWrU97c693A-22" value="Mitarbeiter" style="whiteSpace=wrap;html=1;align=center;" vertex="1" parent="1">
          <mxGeometry x="165" y="370" width="100" height="40" as="geometry" />
        </mxCell>
        <mxCell id="mJHiC2hu7bWrU97c693A-25" value="Name" style="ellipse;whiteSpace=wrap;html=1;align=center;" vertex="1" parent="1">
          <mxGeometry x="40" y="440" width="100" height="40" as="geometry" />
        </mxCell>
        <mxCell id="mJHiC2hu7bWrU97c693A-27" value="Personalnummer" style="ellipse;whiteSpace=wrap;html=1;align=center;fontStyle=4;" vertex="1" parent="1">
          <mxGeometry x="150" y="440" width="130" height="40" as="geometry" />
        </mxCell>
        <mxCell id="mJHiC2hu7bWrU97c693A-30" value="Titel" style="ellipse;whiteSpace=wrap;html=1;align=center;" vertex="1" parent="1">
          <mxGeometry x="290" y="440" width="100" height="40" as="geometry" />
        </mxCell>
        <mxCell id="mJHiC2hu7bWrU97c693A-32" value="Status" style="ellipse;whiteSpace=wrap;html=1;align=center;" vertex="1" parent="1">
          <mxGeometry x="400" y="440" width="100" height="40" as="geometry" />
        </mxCell>
        <mxCell id="mJHiC2hu7bWrU97c693A-35" value="Telefonnummer" style="ellipse;whiteSpace=wrap;html=1;align=center;fontStyle=4;" vertex="1" parent="1">
          <mxGeometry x="650" y="150" width="100" height="40" as="geometry" />
        </mxCell>
        <mxCell id="mJHiC2hu7bWrU97c693A-38" style="edgeStyle=orthogonalEdgeStyle;rounded=0;orthogonalLoop=1;jettySize=auto;html=1;entryX=0.5;entryY=0;entryDx=0;entryDy=0;" edge="1" parent="1" source="mJHiC2hu7bWrU97c693A-37" target="mJHiC2hu7bWrU97c693A-17">
          <mxGeometry relative="1" as="geometry" />
        </mxCell>
        <mxCell id="mJHiC2hu7bWrU97c693A-39" style="edgeStyle=orthogonalEdgeStyle;rounded=0;orthogonalLoop=1;jettySize=auto;html=1;entryX=0.5;entryY=0;entryDx=0;entryDy=0;" edge="1" parent="1" source="mJHiC2hu7bWrU97c693A-37" target="mJHiC2hu7bWrU97c693A-18">
          <mxGeometry relative="1" as="geometry" />
        </mxCell>
        <mxCell id="mJHiC2hu7bWrU97c693A-37" value="Apparatentyp" style="whiteSpace=wrap;html=1;align=center;" vertex="1" parent="1">
          <mxGeometry x="650" y="380" width="100" height="40" as="geometry" />
        </mxCell>
      </root>
    </mxGraphModel>
  </diagram>
</mxfile>
